<?xml version="1.0" standalone="no"?>
<!DOCTYPE svg PUBLIC "-//W3C//DTD SVG 20010904//EN"
 "http://www.w3.org/TR/2001/REC-SVG-20010904/DTD/svg10.dtd">
<svg version="1.0" xmlns="http://www.w3.org/2000/svg"
 width="700.000000pt" height="700.000000pt" viewBox="0 0 700.000000 700.000000"
 preserveAspectRatio="xMidYMid meet">
<metadata>
Created by potrace 1.11, written by Peter Selinger 2001-2013
</metadata>
<g transform="translate(0.000000,700.000000) scale(0.100000,-0.100000)"
fill="#000000" stroke="none">
<path d="M5236 5895 c-32 -8 -89 -30 -125 -47 -134 -65 -123 -51 -1233 -1693
-561 -830 -1021 -1511 -1022 -1512 -1 -2 -173 261 -382 585 -427 661 -457 700
-594 764 -98 46 -180 62 -279 55 -410 -32 -639 -478 -428 -834 58 -99 1197
-1855 1239 -1911 44 -59 136 -131 207 -163 212 -94 459 -46 619 121 40 41
2529 3708 2596 3824 172 297 32 675 -293 793 -83 31 -222 39 -305 18z"/>
</g>
</svg>
